<svg width="40" height="40" viewBox="0 0 60 60" fill="none" xmlns="http://www.w3.org/2000/svg">
<circle cx="30" cy="30" r="30" fill="black"/>
<path d="M10.4337 31.5693H19.6502V33.8269H12.9257V37.0373H19.4719V39.2091H12.9257V42.4646H19.6502V44.7223H10.4337V31.5693ZM45.1374 44.9503C47.9658 44.9503 49.5595 43.5957 49.5595 41.7399C49.5595 40.4147 48.6159 39.4281 46.6408 39.0014L44.5528 38.5747C43.3406 38.349 42.9591 38.1232 42.9591 37.6717C42.9591 37.0892 43.5438 36.728 44.6205 36.728C45.7875 36.728 46.6408 37.0441 46.8778 38.121H49.3338C49.2006 36.1004 47.7401 34.7526 44.7785 34.7526C42.2233 34.7571 40.4174 35.8227 40.4174 37.8546C40.4174 39.2678 41.4039 40.1889 43.537 40.6382L45.8711 41.1755C46.792 41.3561 47.0381 41.6022 47.0381 41.9838C47.0381 42.5911 46.3428 42.9726 45.2209 42.9726C43.8056 42.9726 42.9975 42.6588 42.6837 41.5796H40.221C40.5799 43.6025 42.0833 44.9503 45.1374 44.9503V44.9503ZM39.5145 44.7042H36.8622C35.2008 44.7042 34.2798 43.6702 34.2798 42.3676V37.2044H32.4175V35.0054H34.2798V32.2443H36.7493V35.0054H39.5145V37.2044H36.7493V41.7399C36.7493 42.2569 37.1082 42.503 37.6703 42.503H39.5145V44.7042ZM28.9052 34.9964V35.8724C28.0401 35.1394 26.9419 34.7391 25.8081 34.7435C25.1299 34.7293 24.4557 34.8505 23.8249 35.1002C23.1942 35.35 22.6196 35.7231 22.1349 36.1978C21.6502 36.6724 21.2651 37.2391 21.0022 37.8646C20.7393 38.49 20.6039 39.1617 20.6039 39.8401C20.6039 40.5186 20.7393 41.1903 21.0022 41.8157C21.2651 42.4412 21.6502 43.0078 22.1349 43.4825C22.6196 43.9572 23.1942 44.3303 23.8249 44.58C24.4557 44.8298 25.1299 44.951 25.8081 44.9367C26.9418 44.9403 28.0397 44.5402 28.9052 43.8079V44.6839H31.3431V34.9761L28.9052 34.9964ZM26 42.8213C25.4125 42.8272 24.8365 42.6582 24.3452 42.336C23.8539 42.0137 23.4695 41.5527 23.2407 41.0114C23.012 40.4702 22.9492 39.8731 23.0604 39.2961C23.1716 38.7191 23.4518 38.1882 23.8653 37.7708C24.2788 37.3534 24.8071 37.0683 25.383 36.9518C25.9588 36.8353 26.5563 36.8926 27.0996 37.1164C27.6428 37.3402 28.1073 37.7205 28.434 38.2088C28.7607 38.6972 28.9349 39.2717 28.9345 39.8593C28.9381 40.247 28.8648 40.6316 28.719 40.9908C28.5731 41.35 28.3575 41.6768 28.0847 41.9522C27.8118 42.2276 27.4871 42.4462 27.1293 42.5954C26.7715 42.7446 26.3877 42.8214 26 42.8213V42.8213Z" fill="#06C167"/>
<path d="M48.7695 20.3444C47.5347 20.3444 46.6589 21.3107 46.6589 22.7917V28.2258H44.7741V18.6647H46.6363V19.8342C46.8674 19.4449 47.1989 19.125 47.596 18.9077C47.9931 18.6905 48.4413 18.5839 48.8936 18.5992H49.5708V20.3489L48.7695 20.3444ZM43.4761 23.4441C43.4761 20.5927 41.4445 18.4593 38.6951 18.4593C38.0459 18.4631 37.4039 18.5953 36.806 18.8483C36.2081 19.1013 35.6661 19.47 35.2112 19.9333C34.7564 20.3966 34.3976 20.9454 34.1557 21.5479C33.9137 22.1504 33.7933 22.7949 33.8013 23.4441C33.8013 26.2933 36.0022 28.4493 38.8757 28.4493C39.6762 28.4655 40.4689 28.2894 41.1872 27.9358C41.9056 27.5823 42.5287 27.0616 43.0043 26.4174L41.6364 25.4083C41.3217 25.8442 40.9063 26.1977 40.4257 26.4387C39.945 26.6796 39.4133 26.8009 38.8757 26.7922C38.1088 26.7882 37.3687 26.5099 36.7891 26.0076C36.2095 25.5054 35.8287 24.8123 35.7155 24.0537H43.4829L43.4761 23.4441ZM35.7539 22.5682C36.0902 21.1075 37.2595 20.1209 38.6726 20.1209C40.0856 20.1209 41.2549 21.1075 41.5687 22.5682H35.7539ZM27.8307 18.4593C27.2011 18.46 26.5778 18.5852 25.9967 18.8278C25.4156 19.0703 24.8882 19.4254 24.4448 19.8725V15.0909H22.5599V28.2258H24.4222V27.018C25.3252 27.9293 26.5525 28.4456 27.8353 28.4538C28.5001 28.468 29.161 28.3492 29.7793 28.1045C30.3976 27.8599 30.9608 27.4942 31.436 27.029C31.9111 26.5637 32.2887 26.0083 32.5464 25.3952C32.8041 24.7822 32.9369 24.1238 32.9369 23.4588C32.9369 22.7938 32.8041 22.1354 32.5464 21.5224C32.2887 20.9093 31.9111 20.3539 31.436 19.8886C30.9608 19.4234 30.3976 19.0577 29.7793 18.8131C29.161 18.5684 28.5001 18.4497 27.8353 18.4638L27.8307 18.4593ZM27.6953 26.7651C27.0394 26.7673 26.3976 26.5747 25.8513 26.2116C25.305 25.8486 24.8788 25.3314 24.6268 24.7258C24.3748 24.1202 24.3082 23.4533 24.4357 22.8098C24.5631 22.1663 24.8787 21.5751 25.3425 21.1113C25.8063 20.6474 26.3974 20.3317 27.0408 20.2043C27.6842 20.0769 28.3509 20.1434 28.9565 20.3955C29.562 20.6476 30.0791 21.0738 30.4421 21.6202C30.8051 22.1666 30.9977 22.8084 30.9955 23.4644C30.9973 23.8984 30.9131 24.3284 30.7479 24.7297C30.5827 25.1309 30.3397 25.4955 30.0329 25.8024C29.7261 26.1092 29.3616 26.3523 28.9603 26.5175C28.5591 26.6827 28.1292 26.7669 27.6953 26.7651V26.7651ZM15.6187 26.6748C17.4381 26.6748 18.8512 25.2841 18.8512 23.1958V15.0909H20.8038V28.2258H18.8738V26.9909C18.4227 27.4565 17.8818 27.8259 17.2839 28.0766C16.686 28.3272 16.0435 28.454 15.3953 28.4493C12.5894 28.4493 10.4292 26.4174 10.4292 23.3087V15.0909H12.4043V23.1958C12.4089 25.3067 13.7813 26.6748 15.6187 26.6748V26.6748Z" fill="white"/>
</svg>
